<svg width="94" height="94" viewBox="0 0 94 94" fill="none" xmlns="http://www.w3.org/2000/svg">
<g filter="url(#filter0_d_177_119)">
<rect x="4" width="86" height="86" rx="15" fill="white" shape-rendering="crispEdges"/>
<path d="M55.5563 17.9344C55.7639 20.6459 54.9064 23.3316 53.1658 25.421C52.3324 26.4577 51.2746 27.2917 50.0721 27.8602C48.8696 28.4288 47.5538 28.717 46.2237 28.7034C46.1388 27.3994 46.3118 26.0915 46.7327 24.8545C47.1536 23.6174 47.8142 22.4755 48.6767 21.4939C50.4408 19.4846 52.8971 18.2137 55.5563 17.9344Z" fill="black"/>
<path d="M60.4069 37.6695C59.5232 39.2265 59.0477 40.9817 59.0246 42.7719C59.0268 44.7856 59.6217 46.7541 60.7351 48.4319C61.8485 50.1098 63.4312 51.4228 65.2858 52.2072C64.5566 54.576 63.4575 56.8145 62.0291 58.84C60.1108 61.7095 58.0996 64.5129 54.9073 64.5647C53.3891 64.5998 52.3642 64.1632 51.2963 63.7083C50.1824 63.2338 49.0217 62.7393 47.2054 62.7393C45.279 62.7393 44.0663 63.2497 42.8967 63.7419C41.886 64.1673 40.9074 64.5791 39.5283 64.6363C36.4882 64.7489 34.1648 61.5737 32.1768 58.7311C28.2034 52.9259 25.1094 42.3713 29.2573 35.1897C30.2149 33.469 31.6019 32.0256 33.2831 31.0003C34.9644 29.9749 36.8825 29.4026 38.8508 29.339C40.575 29.3035 42.2295 29.9681 43.6801 30.5507C44.7894 30.9963 45.7795 31.394 46.5902 31.394C47.3029 31.394 48.2654 31.012 49.387 30.5669C51.1538 29.8656 53.3157 29.0076 55.5188 29.2389C57.2072 29.2917 58.86 29.7375 60.3459 30.5408C61.8319 31.3441 63.1101 32.4829 64.079 33.8666C62.5538 34.8043 61.2906 36.1125 60.4069 37.6695Z" fill="black"/>
</g>
<defs>
<filter id="filter0_d_177_119" x="0" y="0" width="94" height="94" filterUnits="userSpaceOnUse" color-interpolation-filters="sRGB">
<feFlood flood-opacity="0" result="BackgroundImageFix"/>
<feColorMatrix in="SourceAlpha" type="matrix" values="0 0 0 0 0 0 0 0 0 0 0 0 0 0 0 0 0 0 127 0" result="hardAlpha"/>
<feOffset dy="4"/>
<feGaussianBlur stdDeviation="2"/>
<feComposite in2="hardAlpha" operator="out"/>
<feColorMatrix type="matrix" values="0 0 0 0 0 0 0 0 0 0 0 0 0 0 0 0 0 0 0.25 0"/>
<feBlend mode="normal" in2="BackgroundImageFix" result="effect1_dropShadow_177_119"/>
<feBlend mode="normal" in="SourceGraphic" in2="effect1_dropShadow_177_119" result="shape"/>
</filter>
</defs>
</svg>
