<svg width="832" height="1024" viewBox="0 0 832 1024" fill="none" xmlns="http://www.w3.org/2000/svg">
<g clip-path="url(#clip0_2_90)">
<mask id="mask0_2_90" style="mask-type:luminance" maskUnits="userSpaceOnUse" x="-81" y="0" width="913" height="1025">
<path d="M832 0H-81V1024H832V0Z" fill="white"/>
</mask>
<g mask="url(#mask0_2_90)">
<path d="M-81 0C-81 512.002 -81 512.002 -81 1024C375.5 1024 375.5 1024 832 1024C832 512.002 832 512.002 832 0C375.5 0 375.5 0 -81 0Z" fill="#CBFCF8"/>
<path d="M137.995 359.678C135.025 363.009 130.6 358.967 127.737 362.179C128.183 362.679 128.183 362.679 128.629 363.179C126.836 365.19 123.589 364.03 121.046 364.18C118.558 364.32 118.959 365.601 117.032 366.681C113.58 368.612 108.808 368.342 104.99 370.183C98.9239 373.094 95.0613 385.4 88.9331 387.691C88.9331 393.624 87.033 407.831 84.0269 411.203C83.3578 410.452 83.3578 410.452 82.6888 409.702C79.3169 413.484 82.8226 424.109 81.3507 429.712C80.4944 432.973 76.9352 437.286 79.5667 441.718C81.0474 444.199 103.571 456.855 107.22 458.226C111.564 459.847 117.782 457.575 120.154 464.229C121.769 468.751 120.386 474.864 121.938 479.736C125.881 492.122 124.882 513.623 125.061 526.259C125.132 531.121 130.27 533.863 132.197 537.765C135.016 543.447 133.187 550.981 134.427 557.274C134.516 557.734 134.9 558.265 135.319 558.275C153.311 558.605 171.304 558.115 189.287 558.275C189.903 558.275 190.465 558.885 191.071 558.775C191.491 558.695 191.937 558.245 191.963 557.774C192.436 548.78 192.16 539.756 192.409 530.761C192.606 523.758 192.677 516.754 192.855 509.751C193.185 497.245 193.462 484.739 193.747 472.233C193.854 467.56 193.783 462.868 194.193 458.226C194.3 457.095 199.465 455.584 200.438 455.224C206.272 453.043 226.485 447.42 216.94 436.715C216.494 437.215 216.494 437.215 216.048 437.716C215.754 437.376 215.174 437.185 215.156 436.715C214.871 427.051 215.156 417.366 215.156 407.701C215.156 403.169 216.869 396.115 213.818 392.694C213.372 393.194 213.372 393.194 212.926 393.694C210.072 391.553 211.08 386.891 208.912 384.19C207.012 381.818 205.121 379.437 203.114 377.186C198.779 372.314 192.748 372.064 188.841 367.682C189.287 367.181 189.287 367.181 189.733 366.681C188.877 365.711 174.372 363.9 172.785 365.681C170.661 363.289 170.323 361.929 166.986 363.179C166.986 367.471 166.986 371.153 166.986 375.685C166.986 380.358 168.44 385.16 167.432 389.692C166.558 393.604 160.323 391.363 156.728 391.193C149.975 390.863 142.223 382.139 140.671 375.185C139.726 370.933 140.198 362.139 137.995 359.678Z" fill="#FCFEFB"/>
<path d="M282.951 442.218C286.894 451.052 290.409 460.127 293.656 469.231C294.494 471.582 297.349 476.455 296.332 478.736C300.471 483.378 322.897 481.737 330.675 481.737C333.182 481.737 338.195 480.447 340.487 481.737C341.683 480.397 341.95 479.356 343.61 478.736C343.61 475.064 343.012 471.332 343.61 467.73C343.699 467.18 349.738 454.354 349.854 454.224C352.45 451.312 355.313 449.401 357.436 446.22C360.407 449.551 357.882 464.539 357.882 469.731C357.882 488.24 359.078 506.749 358.774 525.258C358.765 525.959 357.882 526.259 357.436 526.759C354.689 523.668 356.009 516.384 351.638 514.753C351.638 510.041 344.823 498.245 341.38 498.245C327.107 498.245 312.817 497.795 298.562 498.746C295.565 498.946 289.82 513.553 287.857 515.754C290.792 519.045 299.9 521.627 299.9 528.26C299.9 532.672 300.283 539.015 299.008 543.768C298.374 546.139 295.779 547.209 294.548 549.27C289.436 557.864 282.889 559.295 275.369 552.272C272.273 555.743 272.523 564.448 270.909 569.28C265.762 584.667 261.391 601.176 258.42 617.804C257.689 621.906 258.072 635.692 264.664 635.812C289.713 636.253 313.182 634.812 337.811 635.312C348.061 635.522 375.027 640.595 383.305 631.31C387.489 626.618 383.528 612.421 381.521 606.798C378.569 598.504 377.409 588.139 375.277 579.785C371.548 565.128 366.508 549.43 361.45 535.263C360.906 533.733 360.558 530.501 360.558 528.76C360.558 509.581 360.558 490.401 360.558 471.232C360.558 462.728 360.781 456.415 360.558 446.72C360.371 438.316 362.003 429.372 361.45 420.707C361.397 419.767 360.505 418.726 359.666 418.706C336.188 418.056 312.683 418.376 289.195 418.706C280.614 418.826 286.064 438.726 282.951 442.218Z" fill="#FCA739"/>
<path d="M615.681 177.587C593.228 179.876 569.375 205.185 564.835 230.613C563.479 238.211 565.45 248.814 563.497 256.125C562.391 260.272 541.624 268.652 537.628 273.133C540.206 277.46 564.541 277.859 570.187 283.138C575.62 288.216 579.304 296.367 584.46 302.148C592.229 310.86 607.635 318.426 618.357 319.156C671.737 322.78 702.717 270.045 683.476 216.106C675.421 193.514 656.42 184.813 615.681 177.587Z" fill="#FCA739"/>
<path d="M249.054 451.723C252.729 448.631 253.541 440.137 255.298 435.215C259.25 424.129 261.533 409.942 268.679 400.698C276.475 390.603 282.898 388.132 293.656 384.69C295.44 384.12 300.685 383.209 300.792 380.188C301.122 371.343 304.307 349.103 298.562 342.669C296.653 344.1 292.951 347.422 290.533 347.672C273.246 349.433 269.91 321.159 290.533 321.159C293.575 321.159 296.742 325.371 298.562 327.162C300.908 325.401 299.454 324.801 299.454 322.159C299.454 317.485 299.623 312.812 299.9 308.151C300.212 302.981 309.329 294.24 311.942 292.143C343.342 266.99 347.098 321.599 343.164 343.67C342.013 350.113 327.589 359.708 327.553 360.178C327.071 366.491 325.475 373.514 327.999 379.187C330.764 385.39 342.307 385.59 347.178 389.692C351.219 393.084 355.732 396.846 358.328 401.698C359.417 403.729 359.033 405.98 360.558 407.701C367.017 402.869 370.353 372.884 371.263 365.18C372.092 358.227 371.994 351.174 372.155 344.17C372.753 318.441 371.263 287.24 351.638 269.632C347.972 266.341 342.62 260.974 337.811 259.627C328.971 257.147 321.068 254.624 311.496 254.624C292.951 254.624 265.244 273.555 260.65 294.144C257.706 307.371 255.36 322.48 250.838 335.166C247.207 345.351 236.315 351.794 233.889 362.679C226.628 395.255 229.589 426.25 249.054 451.723Z" fill="#2D2F3F"/>
<path d="M475.631 555.773C470.261 561.796 460.467 556.704 452.884 557.274C452.519 557.294 451.582 558.825 451.546 559.275C449.209 590.801 449.691 623.507 451.546 654.822C452.144 664.807 452.295 674.822 452.438 684.836C452.474 686.797 455.855 693.1 457.79 693.341C470.404 694.911 484.48 694.841 497.04 694.841C502.401 694.841 509.306 691.59 513.097 695.842C519.448 688.718 542.873 698.313 550.116 688.838C552.614 685.567 551.508 675.922 550.562 672.33C550.33 671.42 548.885 671.26 548.778 670.329C548.27 665.857 549.055 661.315 548.778 656.823C547.378 634.082 542.472 611.08 542.088 588.289C542.017 583.947 541.91 579.605 541.642 575.283C541.437 571.921 540.277 561.246 538.966 559.775C532.9 566.579 532.088 586.558 518.895 570.281C516.843 567.739 517.976 558.955 515.327 557.774C505.559 553.392 486.255 561.726 475.631 555.773Z" fill="#FCA739"/>
<path d="M107.666 567.779C104.954 570.821 104.133 596.113 103.652 602.296C101.966 624.047 99.5394 644.817 97.4075 666.327C96.9971 670.519 93.2149 683.736 95.6234 687.338C99.9765 693.841 100.806 688.638 104.544 692.84C104.99 692.59 104.99 692.59 105.436 692.34C105.739 692.67 105.909 693.32 106.328 693.34C112.572 693.661 118.816 693.22 125.061 693.34C127.951 693.39 131.492 693.05 133.535 695.341C137.326 691.089 144.239 694.171 149.592 694.341C149.922 694.351 150.189 694.671 150.484 694.841C154.587 690.239 162.071 693.721 167.878 693.841C174.239 693.961 185.559 697.092 190.179 689.839C193.426 684.736 191.178 663.526 191.963 657.323C195.237 631.67 195.978 603.296 195.978 577.284C195.978 575.083 192.998 557.544 191.517 557.274C190.911 557.154 190.349 557.774 189.733 557.774C171.447 557.614 153.16 556.934 134.873 556.774C132.482 556.754 130.038 557.014 127.737 557.774C123.517 559.165 126.586 566.148 125.507 569.78C125.007 571.451 121.225 575.453 120.154 575.783C111.207 578.514 111.965 572.591 107.666 567.779Z" fill="#30A787"/>
<path d="M467.157 482.738C471.34 488.21 480.127 494.393 481.875 502.247C482.58 505.389 484.757 514.593 478.753 513.253C472.072 511.752 467.701 499.316 462.251 495.244C459.798 497.995 461.644 508.3 461.805 511.752C461.867 513.103 465.016 527.63 457.79 524.258C450.922 521.046 453.687 498.135 450.208 494.243C447.675 497.085 449.423 502.237 449.316 506.249C449.129 513.553 452.09 528.65 447.978 533.262C449.949 537.685 451.073 558.175 452.884 558.275C459.128 558.595 465.373 558.415 471.617 558.275C474.9 558.195 474.275 558.295 476.077 556.274C475.39 554.723 475.39 553.322 476.077 551.771C474.284 549.76 468.602 551.721 468.049 549.27C466.577 542.657 472.616 545.648 475.185 542.767C476.496 541.296 472.741 537.805 472.509 536.764C471.965 534.313 473.107 532.192 475.631 533.262C477.843 534.193 477.719 538.105 479.199 539.766C481.733 537.324 485.952 532.682 489.012 537.264C489.413 537.865 489.788 539.025 489.458 539.766C488.78 541.296 483.383 542.127 484.552 544.768C486.211 548.48 492.509 547.279 491.688 552.772C491.001 557.414 484.462 551.221 482.767 551.771C481.385 552.212 480.189 557.354 481.875 557.774C492.187 560.336 502.99 557.924 513.543 558.275C514.97 558.315 515.371 559.435 516.665 558.275C517.298 557.704 526.156 533.533 525.585 532.262C524.551 529.921 520.902 532.672 520.679 529.26C520.26 522.637 523.034 516.984 525.585 511.252C522.891 508.22 511.375 512.652 509.083 506.249C506.719 499.606 517.28 500.747 519.341 500.747C521.321 500.747 525.335 502.527 526.923 500.747C526.272 499.266 512.454 477.625 522.463 479.236C530.34 480.497 529.492 491.612 533.614 496.244C536.192 494.313 535.398 477.155 535.398 473.733C535.398 460.477 533.587 446.12 529.599 432.713C528.725 429.762 525.719 423.559 528.261 420.707C517.798 406.03 525.282 442.578 516.665 437.215C510.956 433.654 513.293 419.267 515.773 413.704C513.284 410.913 505.684 418.596 501.946 417.206C491.947 413.464 514.872 402.208 515.773 401.198C513.471 397.756 505.827 391.363 502.838 389.692C501.723 390.943 499.618 394.094 498.378 394.695C497.111 395.305 487.879 394.825 487.674 392.194C487.005 383.579 486.077 376.966 486.336 368.182C486.389 366.301 487.638 365.16 485.89 364.18C484.445 363.369 478.834 364.57 477.861 364.68C465.667 366.041 454.267 373.424 447.086 384.69C441.011 394.225 442.055 408.962 441.288 419.707C440.503 430.762 437.051 442.388 437.72 453.724C437.978 457.996 447.701 456.055 448.424 459.726C448.808 461.657 446.578 474.174 450.208 471.732C454.873 468.591 449.45 445.129 456.006 440.717C467.71 432.843 462.376 464.579 462.697 468.231C462.741 468.701 463.178 469.151 463.589 469.231C466.193 469.711 470.787 466.38 473.401 465.729C478.53 464.449 483.071 463.728 488.566 463.728C489.797 463.728 490.992 466.1 491.242 467.23C492.776 474.114 470.19 479.336 467.157 482.738Z" fill="#30A787"/>
<path d="M264.218 635.312C270.712 642.586 286.055 628.259 290.087 637.313C291.693 640.905 291.631 650.62 291.872 655.322C292.157 660.645 291.898 666.007 292.318 671.33C293.165 682.095 293.87 694.461 294.548 705.847C294.851 710.949 296.796 718.463 295.886 723.355C294.066 733.17 283.808 738.153 277.599 745.366C267.599 756.982 257.983 769.068 247.27 779.883C248.385 781.134 247.939 781.634 249.054 782.884C248.831 783.385 248.831 783.385 248.608 783.885C250.9 786.456 248.501 789.348 252.622 790.888C252.622 800.053 260.873 798.092 254.852 809.898C253.942 811.678 254.022 814.33 252.622 815.9C253.514 816.901 253.514 816.901 254.406 817.901C256.832 815.18 261.257 816.421 264.664 816.901C266.208 817.111 269.785 825.225 270.909 826.906C276.493 820.643 272.095 797.462 272.693 789.888C272.916 787.076 278.723 783.945 280.721 781.884C286.377 776.071 291.675 769.748 297.67 764.375C299.748 766.696 298.812 772.869 299.008 776.381C299.231 780.373 299.044 784.405 299.454 788.387C300.765 801.083 300.952 814.4 301.684 827.906C301.711 828.287 301.675 837.881 303.914 837.911C316.26 838.071 328.606 837.901 340.934 837.411C341.353 837.391 341.531 836.741 341.826 836.411C339.292 833.569 336.188 836.581 333.797 833.909C335.581 831.908 343.119 825.795 341.826 822.904C339.908 818.602 329.185 824.835 327.107 819.402C325.573 815.39 326.411 807.116 326.215 802.394C326.001 797.221 326.01 792.049 325.769 786.886C324.993 770.338 323.093 753.31 323.093 736.862C323.093 733.71 327.544 731.219 329.337 729.358C332.504 726.067 335.564 722.665 338.703 719.353C346.678 710.949 354.609 702.515 362.342 693.841C363.101 692.99 363.734 691.95 364.127 690.839C369.934 674.551 363.565 654.932 365.019 637.814C365.42 633.091 374.697 639.454 377.953 635.813C373.725 631.07 367.035 635.312 361.896 635.312C356.544 635.312 351.192 635.422 345.84 635.312C318.998 634.742 292.585 633.812 265.11 634.312C264.691 634.322 264.522 634.972 264.218 635.312Z" fill="#F7765D"/>
<path d="M298.116 325.161C289.106 315.051 271.863 322.64 275.815 338.167C277.715 345.611 284.191 348.672 290.533 348.672C293.334 348.672 296.662 342.529 299.008 345.171C300.364 346.691 299.9 350.903 299.9 352.674C299.9 357.507 300.212 362.339 300.346 367.181C300.471 371.513 300.489 375.896 299.9 380.188C299.579 382.549 293.566 383.269 291.872 383.689C283.968 385.66 276.225 390.233 270.463 396.696C259.553 408.932 251.935 442.028 247.27 457.726C245.12 464.949 241.917 473.503 241.917 481.237C241.917 487.04 247.395 492.583 249.054 497.245C251.855 505.089 257.733 512.082 260.65 520.256C262.871 526.479 266.894 534.923 270.463 540.266C274.307 546.009 274.075 552.812 278.937 557.274C285.386 563.187 298.829 549.76 299.9 543.768C301.684 533.793 301.452 526.489 294.994 519.256C292.594 516.554 290.971 518.245 288.303 515.254C287.188 516.504 287.634 517.004 286.519 518.255C282.719 515.404 280.926 508.2 278.937 503.748C275.378 495.764 268.268 487.38 266.448 479.236C265.601 475.434 268.197 471.872 269.125 468.731C271.943 459.236 273.219 443.629 279.829 436.215C281.435 438.006 282.139 440.597 283.397 442.718C286.591 439.136 281.747 419.807 289.195 419.707C312.683 419.377 336.179 419.377 359.666 419.707C360.086 419.707 360.264 420.367 360.558 420.707C363.957 416.896 362.03 410.813 360.558 406.701C357.088 396.956 350.282 390.423 341.826 385.69C338.784 383.98 330.461 383.289 328.891 379.187C326.723 373.514 328.133 366.841 328.445 360.678C328.525 359.167 332.37 358.497 333.351 357.677C336.554 354.985 340.728 351.994 342.272 347.672C345.867 337.607 344.948 322.73 344.948 312.152C344.948 302.296 337.865 289.678 330.675 284.639C322.674 279.027 299.204 301.874 299.008 308.15C298.749 316.664 299.936 319.052 298.116 325.161Z" fill="#F7765D"/>
<path d="M277.153 214.605C269.722 207.66 257.644 206.976 249.054 211.103C245.048 213.028 240.08 220.397 239.241 224.61C238.617 227.77 238.144 234.092 241.025 234.114C307.482 234.611 373.948 234.775 440.396 234.114C443.892 234.079 442.046 223.677 439.95 222.108C434.312 217.893 426.078 222.605 419.879 222.108C417.176 221.891 420.789 214.611 416.757 213.104C416.757 209.58 414.098 207.99 411.85 206.101C406.81 201.86 400.432 201.598 394.456 201.598C392.484 201.598 390.575 203.385 388.658 202.099C386.543 200.672 388.586 198.011 386.873 196.096C386.427 196.596 386.427 196.596 385.981 197.096C383.395 194.196 382.235 188.717 378.399 185.591C372.877 181.084 359.274 180.559 352.976 184.09C347.874 186.95 345.893 193.3 341.38 197.096C341.148 197.296 340.755 197.245 340.488 197.096C337.945 195.671 339.899 190.759 339.596 187.592C339.587 187.508 329.248 174.891 328.445 174.085C325.537 171.147 320.559 171.691 316.849 170.583C303.584 166.616 283.915 172.273 279.829 190.593C279.098 193.868 277.563 214.151 277.153 214.605Z" fill="#FCFEFB"/>
<path d="M129.967 318.155C136.416 310.92 141.117 315.958 141.117 325.161C141.117 328.422 137.647 329.753 136.211 332.164C137.487 333.585 136.755 332.905 138.441 334.165C136.925 340.958 138.441 348.172 138.441 355.175C138.441 367.752 138.584 387.321 153.606 390.693C157.647 391.593 162.829 395.165 166.54 391.693C172.517 386.11 165.729 363.399 168.324 353.675C168.681 352.344 177.138 352.644 179.475 352.174C186.79 350.683 195.38 343.2 195.531 334.165C195.817 317.157 196.129 300.146 195.978 283.138C195.96 280.929 190.045 282.416 183.043 282.638C172.793 282.961 162.526 282.314 152.268 282.638C143.258 282.922 148.378 307.99 147.361 310.652C145.738 314.895 137.201 306.822 133.981 307.15C128.959 307.661 126.461 314.221 129.967 318.155Z" fill="#99464A"/>
<path d="M104.99 691.34C101.93 694.771 103.661 701.545 103.206 706.347C101.992 719.333 101.395 732.34 100.53 745.366C98.9238 769.648 96.997 793.62 96.0693 817.901C95.882 822.904 95.8909 827.906 95.6233 832.909C95.5787 833.809 94.089 837.761 96.5153 837.911C104.383 838.381 112.287 837.891 120.154 837.411C124.427 837.151 129.61 826.666 132.643 824.405C130.511 822.003 124.142 821.273 123.276 817.401C120.966 807.016 124.793 792.339 125.953 781.884C128.004 763.465 128.682 744.816 130.413 726.357C130.823 721.965 134.623 695.462 133.535 693.841C131.198 690.339 109.057 694.371 104.99 691.34Z" fill="#99464A"/>
<path d="M536.736 691.84C529.162 692.34 521.553 692.13 513.989 692.84C510.867 693.13 512.713 699.854 513.097 703.345C514.239 713.53 515.041 724.666 515.773 735.361C517.628 762.414 522.909 789.718 522.909 816.901C522.909 819.992 514.765 822.534 513.097 824.404C515.184 826.736 517.316 829.007 519.341 831.408C520.742 833.069 523.498 837.351 526.031 837.411C533.765 837.571 541.499 837.731 549.224 837.411C549.644 837.391 549.929 836.831 550.116 836.41C552.248 831.628 549.92 825.735 549.67 820.402C549.331 813.079 549.064 806.126 548.778 798.392C547.931 774.99 546.905 751.009 544.318 727.857C543.658 721.914 545.594 696.272 536.736 691.84Z" fill="#99464A"/>
<path d="M513.989 334.665C514.658 335.166 514.658 335.166 515.327 335.666C517.352 333.395 519.858 334.085 522.017 331.664C519.582 328.933 515.871 329.993 515.327 325.161C513.864 312.041 523.855 317.896 518.003 309.151C515.148 310.754 510.126 317.036 509.975 309.151C509.841 301.979 509.529 294.812 509.529 287.64C509.529 281.322 509.555 280.735 504.622 275.635C501.313 272.206 494.979 273.76 490.796 273.634C485.747 273.48 480.689 273.218 475.631 273.133C470.877 273.052 466.113 272.819 461.359 273.133C460.939 273.16 460.475 273.662 460.467 274.134C460.172 293.806 460.324 313.487 460.467 333.165C460.502 338.097 465.819 344.66 468.495 347.672C472.679 352.364 480.751 352.384 485.89 352.674C501.465 353.545 504.658 345.131 513.989 334.665Z" fill="#99464A"/>
<path d="M85.3649 444.719C81.8949 448.611 81.2705 462.098 80.0127 467.73C78.2732 475.524 75.5525 484.198 75.5525 492.242C75.5525 498.525 79.7897 504.618 81.7968 510.251C86.4086 523.177 93.0097 535.894 98.2995 547.769C103.223 558.815 107.104 578.464 120.6 576.784C121.76 576.634 122.01 574.703 122.83 573.782C128.486 567.439 123.865 563.117 128.183 558.275C125.64 555.423 124.775 549.39 122.83 545.769C116.506 533.933 111.341 519.536 106.774 506.749C104.874 501.407 98.7455 493.443 98.7455 487.74C98.7455 479.806 109.423 464.929 107.666 457.726C107.131 455.514 88.496 447.06 85.3649 444.719Z" fill="#99464A"/>
<path d="M511.759 823.404C503.775 824.124 500.581 833.019 493.472 835.41C486.924 837.611 479.797 835.91 472.955 835.91C468.031 835.91 464.846 825.105 460.467 824.404C453.375 823.264 448.148 827.376 443.964 833.409C443.571 833.979 443.134 835.41 442.18 835.41C436.373 835.41 426.275 833.739 427.461 844.414C427.613 845.765 430.53 849.407 431.921 849.417C470.431 849.577 508.94 849.577 547.44 849.417C548.867 849.407 547.895 848.286 549.224 847.916C551.713 847.216 562.087 849.917 563.943 849.917C567.52 849.917 571.079 849.347 574.647 849.417C583.719 849.577 592.791 849.757 601.854 849.917C614.307 850.137 627.269 849.877 639.766 849.417C644.208 849.247 643.932 838.942 638.874 838.911C609.883 838.741 580.883 839.722 551.9 838.911C550.848 838.881 550.723 836.51 549.67 836.41C541.82 835.65 533.908 836.57 526.031 836.41C519.912 836.28 517.762 822.854 511.759 823.404Z" fill="#2D2F3F"/>
<path d="M551.9 447.22C547.36 450.612 536.156 452.253 534.06 457.726C532.24 462.488 541.642 483.588 541.642 490.742C541.642 494.223 535.523 505.649 534.06 509.751C531.33 517.415 526.477 525.259 524.247 532.762C523.07 536.734 522.633 541.827 521.125 545.769C519.484 550.071 515.942 553.983 515.327 558.775C514.337 566.579 521.981 581.056 530.491 576.284C536.834 572.732 540.607 557.925 542.98 551.271C550.652 529.771 567.939 504.088 564.389 480.237C563.095 471.512 561.195 462.868 559.483 454.224C559.242 453.003 559.393 447.471 557.699 447.22C555.781 446.93 553.515 446.02 551.9 447.22Z" fill="#99464A"/>
<path d="M149.146 236.115C132.126 240.887 153.989 259.051 147.362 264.629C139.28 271.431 130.493 254.325 121.938 255.125C119.048 255.394 116.702 260.667 117.032 263.629C117.63 268.997 124.07 272.137 124.615 277.636C125.293 284.435 122.831 294.08 122.831 300.647C122.831 304.552 126.711 308.917 128.629 312.152C133.205 309.585 131.733 308.15 137.549 308.15C139.217 308.15 146.585 317.701 148.254 311.152C150.698 301.567 143.767 291.667 150.93 284.639C151.331 284.243 151.733 283.655 152.268 283.639C162.526 283.318 172.794 283.962 183.043 283.639C183.462 283.625 183.516 282.693 183.935 282.638C188.913 281.981 195.71 284.171 195.978 282.138C196.522 278.014 195.862 273.798 195.978 269.632C196.209 261.28 203.604 245.782 189.287 247.121C179.671 248.019 186.317 262.672 172.339 261.628C164.729 261.058 159.743 239.91 149.146 236.115Z" fill="#2D2F3F"/>
<path d="M132.197 824.905C135.221 823.214 142.304 826.726 144.685 829.407C145.354 828.657 145.354 828.657 146.023 827.906C143.365 821.933 145.854 814.56 146.023 807.896C146.175 802.074 146.603 794.26 146.915 788.387C148.173 765.156 148.521 741.314 149.592 717.852C149.725 715.031 152.214 693.581 149.592 693.341C144.552 692.88 139.467 692.88 134.427 693.341C133.803 693.391 133.419 694.231 133.089 694.841C132.322 696.282 132.357 702.095 132.197 703.846C131.367 713.2 130.315 722.495 129.521 731.859C128.129 748.317 127.335 764.976 125.507 781.384C124.213 793.019 121.475 806.116 122.384 817.901C122.679 821.633 130.315 822.794 132.197 824.905Z" fill="#CBFCF8"/>
<path d="M497.486 693.34C493.436 695.021 496.514 702.995 496.594 707.848C496.87 723.755 497.477 739.513 497.932 755.371C498.289 767.717 498.895 780.043 499.27 792.389C499.618 803.644 499.092 816.561 500.608 827.906C500.911 830.177 506.71 825.735 508.19 825.405C511.544 824.655 523.328 822.243 523.801 816.901C524.747 806.286 522.677 793.289 521.125 782.884C518.288 763.775 517.78 743.635 516.219 724.356C515.96 721.184 515.032 697.232 513.097 694.341C509.974 689.659 502.374 691.309 497.486 693.34Z" fill="#CBFCF8"/>
<path d="M480.537 245.62C471.376 246.077 464.82 250.928 461.359 260.627C460.19 263.918 458.718 274.319 461.805 274.634C470.77 275.548 500.421 269.01 508.19 280.637C509.091 281.977 508.315 284.003 508.636 285.639C510.126 293.127 508.636 300.98 508.636 308.651C508.636 310.283 509.493 314.654 511.759 314.654C514.738 314.654 517.013 309.012 520.233 308.651C526.361 307.962 531.562 310.441 531.829 300.647C532.124 290.312 532.275 279.971 532.275 269.632C532.275 267.859 530.616 264.051 529.599 262.628C522.98 253.349 515.621 246.505 504.622 246.12C496.603 245.838 488.557 245.219 480.537 245.62Z" fill="#2D2F3F"/>
<path d="M148.7 746.867C146.835 748.958 147.477 765.056 147.362 767.877C146.844 780.643 145.131 793.69 145.131 806.396C145.131 806.456 146.345 825.185 144.685 828.907C146.585 831.038 151.831 836.821 154.944 836.911C160.742 837.071 166.54 837.051 172.339 836.911C173.248 836.881 174.194 836.821 175.015 836.41C179.386 834.229 181.312 828.366 185.273 825.405C182.945 822.784 171.643 821.183 171.447 816.901C170.653 799.092 172.722 780.653 173.677 762.875C173.962 757.582 175.434 758.082 173.677 750.869C172.169 744.646 152.018 750.589 148.7 746.867Z" fill="#99464A"/>
<path d="M460.467 825.405C463.321 828.606 468.013 836.29 472.509 836.41C478.459 836.57 484.4 836.91 490.35 836.91C491.402 836.91 492.5 836.85 493.472 836.41C496.362 835.11 499.458 830.998 501.946 828.907C500.689 826.085 501.17 814.219 501.054 810.898C500.733 801.223 500.555 791.548 500.162 781.884C500.02 778.212 499.841 774.55 499.716 770.878C499.547 765.876 499.921 760.823 499.27 755.871C499.154 754.93 497.861 754.71 497.486 753.87C496.888 752.519 497.575 750.748 497.04 749.368C496.211 747.197 483.526 749.768 482.322 749.868C482.107 749.888 473.597 749.148 472.063 750.868C471.858 751.099 472.054 751.529 472.063 751.869C472.206 757.031 472.304 762.204 472.509 767.377C473.169 783.885 475.658 801.393 474.739 817.901C474.561 821.193 462.251 823.404 460.467 825.405Z" fill="#99464A"/>
<path d="M132.643 823.404C129.592 824.274 124.008 836.25 120.154 836.41C112.429 836.72 104.695 836.41 96.9614 836.41C93.9107 836.41 93.1524 842.003 93.3933 844.414C93.8215 848.716 98.1211 849.417 100.976 849.417C139.333 849.417 177.691 849.577 216.048 849.417C217.69 849.407 219.679 846.655 220.063 844.914C222.542 833.799 210.402 836.09 204.898 835.41C203.346 835.21 198.199 825.485 192.409 824.404C181.964 822.443 182.882 832.098 175.015 835.41C168.753 838.041 161.634 835.91 154.944 835.91C149.886 835.91 145.506 826.886 140.225 825.405C137.835 824.735 135.034 822.724 132.643 823.404Z" fill="#2D2F3F"/>
<path d="M212.034 449.221C210.054 449.772 193.382 456.425 193.301 457.726C193.025 462.378 193.355 467.06 193.301 471.732C193.212 479.906 193.052 488.07 192.855 496.244C192.588 507.58 192.285 518.915 191.963 530.261C191.714 539.215 188.083 561.926 195.086 569.78C198.315 566.159 194.702 557.654 197.316 552.772C203.97 540.336 216.94 513.723 216.94 499.246C216.94 491.772 214.478 484.349 214.264 476.735C214.023 467.901 214.246 459.046 213.818 450.222C213.8 449.752 213.23 449.552 212.034 449.221Z" fill="#99464A"/>
<path d="M508.637 384.69C509.966 386.181 521.063 393.474 521.571 391.193C522.749 385.91 521.348 379.938 525.139 375.685C531.856 368.152 530.518 391.633 529.153 394.695C532.677 398.637 542.177 391.003 542.98 398.196C543.328 401.318 541.642 403.779 541.642 406.701C541.642 416.485 546.432 428.121 548.332 437.716C548.662 439.377 549.608 447.941 551.454 448.221C553.372 448.501 555.353 448.621 557.253 448.221C557.984 448.061 559.295 446.02 560.375 445.72C572.64 442.278 563.06 420.477 561.713 410.703C560.696 403.239 560.285 395.395 558.145 388.192C553.595 372.874 530.152 360.068 516.219 362.679C513.543 363.179 515.452 368.702 514.881 371.684C513.953 376.526 511.669 380.448 508.637 384.69Z" fill="#30A787"/>
<path d="M463.143 497.245C467.977 502.667 472.83 510.922 478.753 514.253C483.178 516.724 484.623 507.44 483.659 504.749C480.68 496.384 474.124 488.691 468.049 483.238C471.867 476.815 492.134 479.116 492.134 467.23C492.134 453.734 468.504 468.631 464.481 467.73C462.491 467.28 463.99 462.638 464.035 461.728C464.284 456.395 464.481 451.052 464.481 445.72C464.481 441.748 459.307 436.945 456.006 439.717C450.636 444.229 452.108 456.455 451.546 462.728C450.886 470.142 448.799 468.251 447.086 473.733C445.739 478.055 450.056 499.846 450.654 505.249C451.296 510.962 453.089 527.79 461.358 525.259C467.487 523.378 459.583 501.237 463.143 497.245Z" fill="#FCFEFB"/>
<path d="M495.256 749.368C499.805 754.47 493.026 779.383 497.486 784.385C497.789 784.045 498.369 783.855 498.378 783.384C498.664 774.22 498.289 765.036 498.378 755.871C498.548 739.863 498.494 724.396 497.932 708.348C497.896 707.297 499.181 693.501 496.148 693.341C487.388 692.86 478.593 692.86 469.833 693.341C467.442 693.471 469.592 715.371 469.833 718.853C470.315 725.846 470.77 732.85 471.171 739.863C472.01 754.45 473.865 752.689 487.674 750.869C490.002 750.558 493.195 750.528 495.256 749.368Z" fill="#704047"/>
<path d="M151.376 692.84C149.77 694.641 150.1 697.793 150.038 700.344C149.94 704.846 149.832 709.348 149.592 713.851C149.253 720.344 148.914 726.847 148.7 733.36C148.557 737.872 146.541 742.585 147.808 746.867C149.003 750.879 172.071 747.037 172.785 750.869C173.338 753.82 171.777 757.732 173.677 759.873C176.219 757.022 175.184 744.215 175.461 739.863C176.371 725.556 179.644 709.158 178.583 694.841C178.297 690.989 171.768 693.541 151.376 692.84Z" fill="#704047"/>
<path d="M107.666 457.225C105.382 457.665 106.747 461.507 106.774 463.728C106.917 475.564 106.488 487.41 106.774 499.246C106.818 500.846 108.665 503.708 109.004 505.249C109.655 508.16 109.004 512.382 109.004 515.254C109.004 520.116 114.597 529.3 116.586 533.763C120.003 541.416 122.179 550.171 126.399 557.274C127.826 559.665 134.686 560.466 135.319 557.274C136.363 552.001 135.694 542.137 133.089 537.765C130.868 534.023 126.532 531.672 126.399 526.759C126.113 516.424 126.524 506.059 125.953 495.744C125.917 495.034 124.668 494.944 124.615 494.243C124.16 488.22 125.819 481.257 122.831 476.234C121.698 474.324 122.866 470.152 121.938 467.73C119.039 460.127 115.471 455.724 107.666 457.225Z" fill="#F8C57E"/>
<path d="M519.787 391.193C518.342 389.562 510.162 382.469 507.744 384.69C505.925 386.361 502.348 389.062 503.73 391.193C506.888 396.065 510.465 397.356 514.435 400.698C510.965 404.59 500.59 406.791 499.27 412.704C497.218 421.918 510.536 417.076 513.543 413.704C513.989 414.204 513.989 414.204 514.435 414.705C512.998 417.926 510.242 442.818 518.449 438.216C525.344 434.344 520.599 422.298 524.693 417.706C527.985 420.928 528.092 421.348 530.491 424.709C533.854 429.412 538.966 427.671 538.966 421.208C538.966 416.645 531.722 410.833 532.275 407.701C532.998 403.649 543.274 406.591 543.872 401.198C544.809 392.774 536.406 392.123 530.937 395.195C528.975 392.984 531.829 383.739 531.829 380.688C531.829 377.096 528.038 372.184 524.693 374.685C520.197 378.047 523.373 387.171 519.787 391.193Z" fill="#FCFEFB"/>
<path d="M513.989 333.665C511.875 336.036 513.007 335.366 510.867 336.166C510.867 352.844 488.378 346.581 485.444 353.175C483.981 356.456 485.738 360.508 485.89 364.18C486.327 374.415 486.014 383.249 486.782 393.194C486.942 395.265 498.36 396.716 500.608 394.195C500.385 393.694 500.385 393.694 500.162 393.194C501.277 391.943 502.089 390.273 503.73 391.193C511.562 382.409 516.219 377.026 516.219 362.679C516.219 353.675 516.915 344.63 516.219 335.666C516.139 334.595 514.738 334.325 513.989 333.665Z" fill="#704047"/>
<path d="M357.882 444.219C356.089 446.23 348.043 452.383 347.178 456.725C346.562 459.836 346.116 465.459 342.718 466.73C342.718 471.302 343.378 476.995 340.488 480.236C341.326 482.107 337.936 502.177 343.164 499.246C343.931 500.106 343.494 501.707 344.056 502.747C347.918 509.781 351.718 515.424 354.76 522.257C355.188 523.207 356.143 529.23 358.328 527.76C358.872 527.389 359.649 526.959 359.666 526.259C360.103 508.25 359.809 490.241 359.666 472.233C359.631 467 359.925 446.51 357.882 444.219Z" fill="#F7765D"/>
<path d="M268.679 468.231C266.948 470.172 265.271 476.345 265.556 479.236C265.922 482.888 270.026 486.49 271.355 490.241C274.923 500.246 280.632 511.092 286.073 520.256C288.812 518.205 296.242 499.846 298.562 499.746C312.674 499.096 326.813 500.066 340.934 499.746C341.353 499.736 341.531 499.076 341.826 498.745C341.531 498.405 341.353 497.755 340.934 497.745C326.813 497.415 312.683 498.065 298.562 497.745C296.073 497.685 299.4 479.456 298.116 478.736C290.239 474.314 275.958 476.385 268.679 468.231Z" fill="#CBFCF8"/>
<path d="M341.38 835.91C329.043 836 316.697 836.08 304.36 836.41C298.919 836.55 300.355 849.377 305.698 849.417C328.302 849.577 350.898 849.577 373.493 849.417C379.478 849.367 379.024 837.651 373.493 836.41C363.85 834.249 351.21 835.83 341.38 835.91Z" fill="#2D2F3F"/>
<path d="M320.863 635.312C316.866 639.794 319.828 647.978 319.971 654.322C320.158 662.325 320.649 670.319 320.863 678.333C320.916 680.254 320.292 693.201 322.647 695.842C325.751 694.101 327.705 690.499 330.229 687.838C333.449 684.436 337.802 682.105 340.041 677.833C341.272 675.492 338.802 652.881 338.257 649.819C337.499 645.547 340.015 637.793 320.863 635.312Z" fill="#CBFCF8"/>
<path d="M534.506 460.227C530.777 464.409 538.261 487.03 533.168 492.743C529.912 489.091 528.939 481.037 523.801 478.736C509.868 472.483 524.113 496.534 525.585 498.745C522.303 504.268 512.936 496.224 508.637 502.247C502.464 510.901 521.955 510.971 523.355 511.252C523.774 511.332 524.06 511.832 524.247 512.252C525.612 515.304 515.808 524.298 520.233 530.261C526.201 538.295 529.831 523.097 531.383 518.755C534.702 509.461 542.534 497.045 542.534 487.24C542.534 482.978 539.581 476.875 538.52 472.733C537.512 468.781 537.708 462.618 534.506 460.227Z" fill="#E8EEE8"/>
<path d="M298.562 480.236C296.189 482.898 296.778 488.37 296.778 492.242C296.778 493.813 295.805 498.705 297.67 498.745C312.094 499.066 326.518 499.066 340.934 498.745C341.353 498.735 341.808 498.215 341.826 497.745C342.111 492.252 342.111 486.73 341.826 481.237C341.808 480.767 341.237 480.567 340.934 480.236C336.545 482.698 315.965 480.437 298.562 480.236Z" fill="#FCFEFB"/>
<path d="M542.088 402.198C539.501 403.649 532.668 403.829 531.383 406.701C531.053 407.441 539.251 418.256 537.628 423.709C535.273 431.643 530.099 423.289 528.261 420.207C526.888 420.978 527.646 420.497 526.031 421.708C528.484 429.942 529.296 451.883 534.506 457.726C540.143 454.564 547.306 453.373 551.9 448.221C547.253 437.796 545.71 421.728 543.426 410.202C542.909 407.561 543.301 404.239 542.088 402.198Z" fill="#8CD3C0"/>
<path d="M279.829 434.714C277.171 437.696 267.448 465.219 268.233 468.731C269.241 473.253 295.752 479.886 297.67 477.735C291.943 464.869 289.258 445.279 279.829 434.714Z" fill="#2D2F3F"/>
<path d="M403.376 285.139C398.764 285.142 393.243 282.536 389.55 285.639C386.552 288.163 384.527 297.533 389.996 297.645C405.901 297.969 421.823 298.132 437.72 297.645C441.939 297.515 442.34 289.094 439.058 286.64C438.264 286.042 433.581 285.678 432.367 285.639C422.707 285.325 413.046 285.131 403.376 285.139Z" fill="#FCFEFB"/>
<path d="M461.359 403.199C460.029 402.449 450.003 401.068 452.884 405.7C454.65 408.521 457.139 409.872 459.574 411.703C457.781 413.714 448.754 419.427 455.56 422.208C460.609 424.259 457.63 420.207 460.913 420.207C463.58 420.207 460.85 429.602 465.819 428.211C468.896 427.351 468.343 422.378 470.279 420.207C481.278 426.37 478.396 417.706 472.509 412.203C473.829 410.222 477.201 410.673 477.861 408.201C479.627 401.608 472.946 401.698 469.387 403.699C467.407 401.478 469.164 398.317 467.603 395.695C466.595 393.994 462.759 392.674 462.251 395.695C461.84 398.176 462.955 401.408 461.359 403.199Z" fill="#CBFCF8"/>
<path d="M447.086 473.233C445.355 475.174 445.614 477.685 444.856 480.237C443.018 486.42 439.798 492.122 439.058 498.746C438.032 507.93 442.653 526.279 448.87 533.262C451.948 529.811 450.779 523.628 450.654 518.755C450.556 514.573 450.815 476.015 447.086 473.233Z" fill="#704047"/>
<path d="M474.293 551.271C476.006 553.182 473.544 555.843 476.077 557.274C482.634 560.946 480.377 554.363 483.213 552.772C484.409 552.102 489.413 555.133 490.796 554.773C497.513 553.032 486.96 545.538 485.444 544.268C486.746 542.087 489.431 542.677 490.35 540.266C491.144 538.185 489.27 536.334 488.12 535.263C485.176 532.512 481.866 536.394 479.645 538.265C478.147 536.584 477.558 533.442 475.631 532.262C468.058 527.63 474.543 541.396 474.293 542.767C473.704 546.079 464.802 540.956 467.157 549.77C467.853 552.362 472.759 552.132 474.293 551.271Z" fill="#CBFCF8"/>
<path d="M253.514 815.9C255.45 813.729 259.946 804.575 257.974 800.893C257.234 799.502 255.369 797.431 254.852 795.891C254.049 793.479 253.996 789.427 252.176 787.386C251.73 787.887 251.73 787.887 251.284 788.387C249.874 786.796 250.918 785.466 249.5 783.885C249.723 783.385 249.723 783.385 249.946 782.884C248.831 781.634 249.277 781.133 248.162 779.883C248.608 779.383 248.608 779.383 249.054 778.882C243.496 772.649 238.278 778.252 238.795 785.886C238.992 788.767 241.935 791.428 242.809 793.89C245.316 800.923 249.116 809.317 253.514 815.9Z" fill="#FCA739"/>
<path d="M263.772 839.412C260.249 839.982 256.493 848.677 262.434 849.417C272.791 850.708 285.485 850.978 295.44 849.917C299.775 849.447 298.508 840.503 294.548 840.412C287.563 840.252 280.578 840.072 273.585 839.912C270.311 839.832 267.01 838.882 263.772 839.412Z" fill="#394952"/>
<path d="M480.537 662.826C481.206 662.075 481.206 662.075 481.875 661.325C481.733 660.985 481.429 660.695 481.429 660.325C481.287 631.811 481.135 603.297 481.429 574.783C481.447 572.852 482.491 568.55 477.861 570.281C474.837 571.411 477.379 573.532 477.415 574.783C477.71 585.448 477.272 596.123 477.415 606.798C477.424 607.169 477.781 607.439 477.861 607.799C481.51 624.137 477.656 641.495 478.307 658.324C478.325 658.644 480.127 662.366 480.537 662.826Z" fill="#F7765D"/>
<path d="M264.218 840.913C274.129 840.913 274.843 842.363 273.139 830.908C272.835 828.867 273.103 826.366 271.801 824.905C271.355 825.155 271.355 825.155 270.909 825.405C269.062 823.324 268.233 820.503 266.894 818.402C263.906 813.709 252.979 814.01 253.96 818.402C255.708 826.216 261.926 833.179 264.218 840.913Z" fill="#FCA739"/>
<path d="M106.328 462.228C105.552 463.098 97.8535 486.239 97.8535 488.24C97.8535 490.351 107.657 513.243 109.004 514.753C113.625 511.302 107.764 503.168 107.666 499.246C107.38 487.41 108.094 475.554 107.666 463.728C107.639 463.018 106.774 462.728 106.328 462.228Z" fill="#CBFCF8"/>
<path d="M332.459 834.409C335.019 837.281 360.888 839.042 363.68 835.91C362.449 834.519 342.432 820.933 341.38 821.403C340.363 821.863 333.842 832.468 332.459 834.409Z" fill="#DD8454"/>
<path d="M324.877 333.165C323.824 333.075 315.457 332.724 314.618 336.166C313.539 340.598 316.991 347.322 321.309 347.672C328.873 348.272 333.351 344.91 333.351 336.166C333.351 335.596 332.343 334.345 332.013 334.165C329.872 332.965 327.268 333.365 324.877 333.165Z" fill="#FCFEFB"/>
<path d="M474.739 321.659C464.757 325.461 476.264 338.097 484.105 335.166C487.906 333.745 494.703 322.459 486.782 322.159C482.767 321.999 478.548 320.208 474.739 321.659Z" fill="#FCFEFB"/>
<path d="M171 323.16C158.735 324.721 170.599 337.167 178.583 337.167C183.89 337.167 187.851 328.072 183.489 324.16C180.233 321.229 175.148 322.63 171 323.16Z" fill="#FCFEFB"/>
<path d="M129.967 317.155C129.521 316.655 129.521 316.655 129.075 316.154C124.338 321.469 134.159 335.136 136.211 333.165C146.469 323.3 141.706 306.622 129.967 317.155Z" fill="#2D2F3F"/>
<path d="M520.233 313.153C513.302 313.322 511.161 327.322 518.003 331.164C522.187 333.505 527.815 328.012 527.815 323.16C527.815 317.996 523.81 313.065 520.233 313.153Z" fill="#2D2F3F"/>
<path d="M286.073 327.662C279.811 330.503 281.872 343.24 290.087 340.168C298.892 336.877 290.935 325.451 286.073 327.662Z" fill="#2D2F3F"/>
<path d="M517.557 309.651C519.626 311.969 522.873 314.598 524.693 317.155C526.022 319.012 525.63 321.709 527.369 323.66C530.117 320.579 528.493 312.425 527.369 308.651C523.73 308.651 520.501 306.35 517.557 309.651Z" fill="#976869"/>
<path d="M664.297 838.411C661.282 839.132 662.201 838.201 659.391 842.413C654.85 849.207 670.095 854.059 670.095 844.414C670.095 841.293 666.26 837.941 664.297 838.411Z" fill="#394952"/>
<path d="M183.935 298.646C179.769 300.324 181.045 310.776 187.057 309.651C193.962 308.36 189.198 296.528 183.935 298.646Z" fill="#2D2F3F"/>
<path d="M468.495 296.145C463.196 297.101 464.16 308.13 470.279 307.15C476.024 306.229 473.874 295.172 468.495 296.145Z" fill="#2D2F3F"/>
<path d="M165.648 297.645C159.966 297.966 159.993 309.651 166.54 309.651C171.732 309.651 169.841 297.407 165.648 297.645Z" fill="#2D2F3F"/>
<path d="M481.43 671.83C477.87 675.142 478.736 685.647 484.998 682.836C488.147 681.425 487.049 676.232 486.782 673.831C486.594 672.1 481.956 671.34 481.43 671.83Z" fill="#F7643D"/>
<path d="M332.905 309.651C329.694 310.809 328.668 323.38 335.135 320.659C340.05 318.591 337.695 307.923 332.905 309.651Z" fill="#4D2235"/>
<path d="M489.458 296.145C484.569 297.417 487.272 309.903 491.688 307.15C496.193 304.347 494.498 294.832 489.458 296.145Z" fill="#2D2F3F"/>
<path d="M312.388 310.151C308.294 312.019 309.793 324 315.511 320.158C320.131 317.046 316.617 308.222 312.388 310.151Z" fill="#4D2235"/>
<path d="M320.417 634.812C319.971 635.312 319.971 635.312 319.525 635.813C319.971 636.313 319.971 636.313 320.417 636.813C320.863 636.313 320.863 636.313 321.309 635.813C320.863 635.312 320.863 635.312 320.417 634.812Z" fill="black"/>
</g>
</g>
<defs>
<clipPath id="clip0_2_90">
<rect width="913" height="1024" fill="white" transform="translate(-81)"/>
</clipPath>
</defs>
</svg>
