<svg width="306" height="266" viewBox="0 0 306 266" fill="none" xmlns="http://www.w3.org/2000/svg">
<path d="M230.096 51.3212C251.958 66.7217 280.168 70.868 294.273 83.8992C308.731 96.9304 309.436 119.439 298.505 135.728C287.573 152.017 264.653 162.679 250.548 183.41C236.443 204.142 230.801 234.647 211.759 249.751C192.718 264.855 160.276 264.263 135.593 253.009C110.909 241.755 65.563 280.034 47.5792 260.191C29.5954 240.052 10.5537 222.282 1.7381 200.662C-7.43011 178.746 22.0477 92.488 34.7422 71.7565C47.4366 51.3212 71.7676 36.2168 97.5091 22.2971C122.898 8.08128 149.698 -4.94994 170.855 1.86183C192.012 8.96976 208.233 35.6245 230.096 51.3212Z" fill="url(#paint0_linear_239_107)"/>
<mask id="mask0_239_107" style="mask-type:luminance" maskUnits="userSpaceOnUse" x="67" y="58" width="190" height="149">
<path d="M67.6021 58.8512H256.543V206.224H67.6021V58.8512Z" fill="white"/>
</mask>
<g mask="url(#mask0_239_107)">
<path d="M150.315 133.869C150.453 133.977 150.453 133.977 150.591 134.085C149.525 134.917 146.439 135.165 144.965 135.165C144.351 135.165 142.792 134.916 142.382 135.237C141.784 134.772 140.868 131.179 139.246 133.077C138.914 133.467 139.51 135.085 138.877 135.093C135.156 135.14 131.435 135.093 127.716 135.093C127.34 135.093 127.381 135.066 127.071 135.309C126.292 135.006 124.992 134.235 124.119 134.661C123.566 134.931 123.929 135.097 123.566 135.381C123.136 135.045 123.422 135.167 122.643 135.165C112.128 135.142 101.613 135.139 91.0982 135.093C87.6541 135.078 84.0863 133.498 81.8745 131.277C80.4374 129.836 79.7641 128.098 79.753 126.31C79.694 117.263 79.6903 108.215 79.6608 99.168C79.6515 96.5155 79.753 93.8959 79.753 91.2486C79.753 87.3787 79.9596 85.8316 83.627 82.9693C84.1084 82.5933 85.0456 82.0553 85.6562 81.8174C86.5952 81.4509 88.2573 81.681 89.2534 81.6734C95.1253 81.6288 100.997 81.6014 106.871 81.6014C107.271 81.6014 107.668 81.6734 108.07 81.6734C122.535 81.6734 136.117 81.7454 150.038 81.7454C150.453 81.7454 150.931 82.1252 151.329 82.2494C154.133 83.1247 156.561 85.8833 156.587 88.2969C156.646 93.9604 156.679 99.624 156.679 105.288C156.679 105.386 156.552 105.48 156.587 105.576C156.749 106.022 160.103 107.308 160.737 107.591C162.796 108.51 164.919 109.658 166.733 110.759C168.124 111.604 170.02 112.03 171.252 112.991C172.151 113.692 174.644 114.062 174.942 115.223C175.389 116.969 172.717 117.028 171.345 117.671C168.246 119.122 164.549 119.927 161.291 121.198C159.996 121.704 158.236 121.896 157.048 122.638C156.181 123.18 156.788 124.363 156.771 125.23C156.747 126.39 156.801 127.009 156.494 127.966C155.624 130.681 153.034 132.277 150.315 133.869Z" fill="#FCA739"/>
<path d="M244.027 137.109C244.027 138.111 244.465 138.798 244.673 139.773C245.127 141.899 245.087 144.033 244.857 146.18C244.658 148.049 244.086 150.178 243.381 152.012C243.102 152.738 242.514 153.786 242.367 154.532C241.85 157.156 240.513 160.052 239.508 162.667C238.059 166.436 237.547 170.398 236.187 174.114C235.642 175.603 235.641 177.292 234.896 178.65C234.677 179.047 234.952 179.529 234.803 179.946C234.298 181.365 233.605 183.113 233.143 184.553C233.001 184.996 233.166 185.473 233.051 185.921C233.004 186.105 232.663 186.056 232.59 186.208C232.163 187.097 232.06 187.849 231.022 188.584C230.889 188.679 230.74 188.8 230.56 188.8C226.717 188.825 222.874 188.8 219.031 188.8C215.39 188.8 211.599 188.728 208.055 188.728C203.331 188.728 198.569 188.728 193.85 188.728C192.404 188.728 190.538 189.383 189.515 188.584C190.234 188.023 191.051 188.551 191.913 187.504C192.129 187.242 192.338 186.285 191.636 186.28C186.594 186.257 181.552 186.233 176.509 186.208C175.882 186.206 175.19 186.266 174.665 185.993C175.041 185.405 175.314 184.754 175.495 184.121C175.626 183.66 174.811 183.304 174.941 182.897C175.559 180.969 174.595 177.833 171.344 178.002C171.001 178.02 170.821 178.386 170.514 178.506C168.716 177.103 168.568 174.921 167.102 173.394C166.168 172.424 165.487 170.895 164.888 169.722C163.419 166.856 161.494 164.064 159.723 161.299C158.854 159.943 158.114 158.329 156.955 157.123C155.461 155.57 154.57 153.493 153.266 151.796C152.939 151.371 152.419 150.176 151.882 149.924C151.469 149.731 149.416 150.084 148.377 149.852C143.411 148.745 137.829 147.984 132.697 148.556C130.38 148.814 127.936 149.564 125.595 149.564C124.861 149.564 123.621 148.745 124.303 148.124C125.512 147.024 130.29 147.093 132.144 146.9C133.083 146.802 132.769 146.988 133.158 146.684C132.531 146.195 128.133 146.13 127.439 146.108C125.597 146.051 123.75 146.108 121.905 146.108C120.16 146.108 118.777 144.199 120.706 143.948C123.136 143.632 125.737 143.7 128.177 143.588C129.222 143.541 130.572 144.022 131.313 143.444C130.758 143.011 129.399 142.89 128.639 142.653C126.093 141.858 122.87 141.593 120.522 140.493C119.751 140.132 117.88 138.581 119.599 138.045C121.106 137.575 126.287 138.969 127.993 139.413C128.675 139.59 130.1 140.233 130.76 140.061C129.657 139.2 127.871 138.712 126.609 137.973C125.536 137.345 123.914 136.617 123.566 135.525C123.176 134.313 125.148 134.378 126.056 134.661C127.334 135.06 128.533 135.822 129.745 136.389C132.324 137.597 135.112 138.664 137.77 139.701C139.143 140.237 140.939 141.06 142.566 140.637C140.559 139.071 138.877 137.276 138.877 134.949C138.877 134.01 138.7 132.228 140.629 132.501C141.533 132.63 141.906 134.195 142.105 134.661C142.751 136.175 144.765 137.822 146.44 138.693C148.861 139.952 151.973 140.595 154.188 142.077C155.657 143.059 155.624 144.186 156.771 145.244C160.813 148.973 165.034 152.586 168.946 156.403C170.887 158.297 172.817 160.198 174.757 162.091C175.356 162.676 176.728 163.638 176.971 164.395C177.778 166.916 180.327 169.372 181.675 171.738C182.126 172.531 182.768 173.579 183.15 174.474C183.346 174.933 183.12 175.314 183.612 175.698C183.704 175.626 183.704 175.626 183.796 175.554C183.63 175.295 183.787 174.972 183.704 174.69C183.316 173.376 182.031 171.48 182.32 170.01C182.386 169.677 183.5 169.915 183.704 170.01C184.199 170.242 185.852 172.002 186.102 172.458C186.674 173.501 187.23 174.475 187.947 175.482C188.538 176.312 186.653 177.707 187.024 178.578C188.259 178.096 192.198 178.345 193.573 178.146C193.744 178.121 193.77 177.874 193.942 177.858C194.827 177.774 195.729 177.923 196.617 177.858C198.174 177.744 200.26 177.376 201.967 177.21C202.492 177.159 203.106 177.075 203.627 176.994C203.863 176.957 203.941 176.649 204.181 176.634C205.56 176.546 206.949 176.68 208.331 176.634C208.502 176.628 208.58 176.34 208.608 176.274C212.326 176.274 216.154 176.198 219.861 175.986C220.204 175.966 220.166 174.398 220.23 174.258C221.02 172.531 221.169 170.405 221.613 168.498C221.768 167.836 222.101 166.878 222.351 166.195C222.734 165.148 222.447 163.843 222.72 162.811C222.758 162.669 223.42 162.281 223.458 162.091C223.834 160.234 223.591 157.976 224.473 156.187C224.894 155.333 224.608 154.165 225.118 153.236C225.196 153.094 225.561 153.101 225.58 152.948C225.927 150.052 226.223 147.126 227.055 144.308C227.48 142.872 227.238 141.363 227.793 139.917C228.56 137.923 229.385 136.019 230.376 134.085C230.653 133.544 231.983 131.283 232.682 131.205C236.003 130.835 239.738 133.113 241.813 134.733C242.563 135.318 243.056 136.856 244.027 137.109Z" fill="#683234"/>
<path d="M174.757 185.921C175.23 186.106 175.977 186.064 176.509 186.064C181.521 186.064 186.532 186.041 191.544 186.064C191.841 186.066 192.245 186.341 192.282 186.568C192.447 187.598 190.835 188.769 189.607 188.8C186.964 188.871 184.318 188.777 181.674 188.8C181.201 188.805 181.569 189.006 181.213 188.728C180.833 188.878 180.402 188.728 180.014 188.728C172.665 188.728 165.317 188.8 157.97 188.8C153.096 188.8 148.029 188.855 143.12 188.8C141.83 188.786 140.515 188.728 139.246 188.728C126.177 188.728 113.111 188.825 100.045 188.8C98.0045 188.797 96.6449 186.622 95.6174 185.417C92.4647 181.727 89.5685 177.814 86.6704 174.042C81.9405 167.891 77.0187 161.662 71.9124 155.683C71.0564 154.682 67.26 150.697 68.1307 149.564C68.5088 149.071 69.0143 148.704 69.7909 148.7C80.6436 148.653 91.4962 148.628 102.351 148.628C103.718 148.628 105.046 149.34 106.04 149.996C109.291 152.143 112.202 156.667 114.434 159.571C118.961 165.461 123.669 171.355 128.546 177.066C130.389 179.224 131.959 181.53 133.804 183.689C134.44 184.435 135.097 185.615 136.294 185.849C136.547 185.899 136.966 185.988 137.216 185.992C139.799 186.039 142.382 186.041 144.964 186.064C146.746 186.082 148.538 186.136 150.314 186.136C154.249 186.136 158.184 186.089 162.121 186.064C165.587 186.044 168.966 186.113 172.451 186.064C173.254 186.054 174.157 186.388 174.757 185.921Z" fill="#1E2632"/>
<path d="M232.774 131.277C228.387 134.702 228.528 142.595 227.473 147.128C226.237 152.43 225.143 156.846 223.643 162.235C222.993 164.573 222.082 166.912 221.613 169.29C221.225 171.259 220.951 173.015 220.783 174.978C220.763 175.221 220.654 176.103 219.953 176.13C218.756 176.176 217.555 176.113 216.356 176.13C212.507 176.183 208.676 177.119 204.821 177.299C199.03 177.568 192.568 179.467 186.84 178.722C186.431 178.669 187.575 176.211 187.67 175.842C188.113 174.114 187.47 171.946 186.801 170.205C186.149 168.508 186.216 166.073 184.811 164.611C183.086 162.816 181.055 161.15 179.461 159.283C179.08 158.838 178.418 158.042 178.262 157.555C177.723 155.874 177.373 154.55 177.432 152.804C177.464 151.846 178.159 151.191 178.354 150.428C178.794 148.711 180.025 146.96 181.013 145.419C182.417 143.226 183.986 141.061 185.641 138.909C186.921 137.244 187.906 134.909 189.607 133.581C189.515 133.473 189.515 133.473 189.423 133.365C189.817 133.057 193.723 132.016 193.85 132.213C194.016 132.472 191.778 136.128 191.544 136.677C190.152 139.936 188.592 143.272 188.592 146.828C188.592 149.965 193.729 152.505 197.355 152.588C200.789 152.667 206.059 152.978 209.161 151.364C213.56 149.075 215.607 145.837 217.832 142.365C220.248 138.592 222.679 134.272 226.041 130.773C226.149 130.661 226.34 130.381 226.594 130.342C227.307 130.23 232.256 130.873 232.774 131.277Z" fill="#F7A53C"/>
<path d="M213.404 118.894C213.934 119.308 213.833 120.469 213.958 121.054C214.334 122.818 214.606 124.875 215.618 126.454C216.775 128.26 219.466 129.246 221.798 129.766C222.657 129.957 224.411 129.933 225.026 130.414C219.077 136.605 214.734 146.773 205.103 149.78C202.956 150.45 200.673 150.644 198.37 150.644C196.746 150.644 194.703 150.189 193.389 149.42C188.219 146.394 190.385 141.642 191.913 137.469C192.363 136.24 192.77 134.836 193.481 133.725C193.787 133.248 193.766 132.511 194.219 132.069C194.679 131.621 195.689 131.387 196.34 131.133C197.759 130.58 199.398 129.748 200.214 128.686C200.938 127.745 199.413 126.343 199.569 125.374C199.666 124.768 202.564 123.108 203.258 122.566C203.735 122.194 204.186 121.802 204.642 121.414C205.084 121.037 205.459 120.615 206.025 120.334C206.685 120.007 208.207 120.145 208.885 120.118C209.365 120.1 209.972 119.613 210.453 119.542C211.84 119.339 212.487 119.61 213.404 118.894Z" fill="#683234"/>
<path d="M125.595 97.4401C126.233 97.8717 126.973 98.0783 126.978 98.808C127.008 103.08 127.071 107.351 127.071 111.623C127.071 113.758 124.185 113.549 122.274 113.567C120.182 113.586 118.092 113.639 116.002 113.639C115.663 113.639 115.327 113.567 114.987 113.567C111.285 113.567 106.808 114.051 103.089 113.567C103.067 113.564 101.305 111.527 101.244 111.407C101.001 110.931 100.348 110.441 100.045 109.967C99.5857 109.25 99.5672 108.423 98.9382 107.735C98.0121 106.725 96.778 106.035 95.8943 105C94.7414 103.651 93.3098 103.847 92.0204 102.84C91.1109 102.13 90.5815 100.573 90.0834 99.6C89.9044 99.2519 88.3216 97.4401 89.3455 97.4401C101.336 97.4401 113.327 97.4401 125.318 97.4401C125.41 97.4401 125.525 97.393 125.595 97.4401Z" fill="black"/>
<path d="M223.181 93.9844C223.274 94.0564 223.328 94.1962 223.458 94.2004C225.578 94.2694 227.703 94.1314 229.822 94.2004C229.953 94.2047 229.969 94.4082 230.099 94.4164C231.141 94.4823 232.191 94.3712 233.235 94.4164C233.322 94.4201 233.358 94.5124 233.42 94.5604C233.281 94.6684 233.281 94.6684 233.143 94.7763C233.429 94.9995 233.942 94.8724 234.342 94.9203C236.262 95.1509 239.228 94.9555 240.983 95.6403C241.307 95.7667 241.863 95.5738 242.09 95.9283C242.174 96.0594 242.014 96.1524 241.905 96.2162C241.376 96.5259 238.118 96.6488 237.386 96.7202C236.572 96.7995 235.326 97.2269 234.526 97.2961C232 97.5153 229.683 97.5393 227.24 98.0161C226.533 98.1539 225.605 98.5768 224.934 98.664C223.593 98.8385 221.562 98.5946 220.322 99.24C219.854 99.4835 219.91 99.9811 219.584 100.32C218.355 101.599 217.447 103.072 216.171 104.352C213.832 106.7 210.876 108.053 208.239 110.111C207.628 110.588 206.071 111.874 206.21 112.631C206.277 113 207.392 113.233 207.132 113.639C206.893 114.011 205.931 113.782 205.564 113.639C205.221 113.906 205.699 114.371 206.025 114.575C206.113 114.63 206.457 114.503 206.486 114.503C207.97 114.503 208.47 114.938 209.899 114.431C210.076 114.368 211.543 113.657 211.559 113.567C211.707 112.757 210.932 111.969 211.836 111.263C211.928 111.335 211.928 111.335 212.021 111.407C213.102 110.985 212.635 109.958 213.589 109.679C215.058 109.249 214.97 113.138 214.788 113.423C214.649 113.315 214.649 113.315 214.511 113.207C214.235 113.315 213.891 113.232 213.589 113.279C213.125 113.351 213.66 113.861 213.22 113.999C212.389 114.258 211.977 114.957 211.19 115.367C210.866 115.536 209.547 115.558 209.438 115.943C209.339 116.291 209.415 116.392 209.53 116.663C209.995 116.663 210.585 116.55 210.914 116.807C210.26 117.317 209.069 116.999 208.147 116.951C206.205 116.849 205.043 116.028 203.535 114.935C203.17 115.22 202.834 115.391 202.428 115.655C201.115 114.63 200.696 111.103 201.69 110.327C202 110.569 201.717 110.772 202.151 110.975C202.442 111.111 202.478 110.799 202.797 111.047C203.109 110.804 203.634 109.741 203.535 109.391C203.449 109.091 202.891 109.033 202.612 108.815C204.224 106.3 206.855 106.758 209.622 106.295C210.442 106.158 211.358 104.89 211.836 104.424C213.265 103.03 214.535 101.591 215.895 100.176C215.802 100.068 215.802 100.068 215.71 99.9599C215.17 100.171 214.288 100.129 213.681 100.248C211.532 100.667 209.314 100.843 207.132 101.184C202.46 101.913 197.556 102.467 192.927 102.768C189.587 102.985 186.22 102.696 182.874 102.84C182.7 102.847 182.663 103.073 182.505 103.128C181.62 103.435 178.767 103.02 177.8 102.984C176.568 102.938 175.062 102.959 173.835 102.768C171.35 102.38 168.719 102.391 166.363 101.472C165.705 101.215 164.332 101.022 164.242 100.248C164.01 98.2565 168.953 97.3487 170.699 97.0082C171.418 96.8678 173.468 96.8588 173.742 96.2162C176.853 96.2162 179.991 95.0851 183.242 95.2803C184.018 95.327 183.009 96.8324 183.519 96.8642C192.023 97.3952 200.76 96.7064 209.161 96.1442C210.144 96.0784 211.464 95.6285 212.389 95.5683C213.064 95.5245 213.754 95.6645 214.419 95.5683C214.633 95.5375 214.664 95.2305 214.88 95.2083C215.886 95.1051 216.911 95.2535 217.924 95.2083C218.926 95.1637 220.118 94.479 221.152 94.3444C222.54 94.164 222.391 94.6011 223.181 93.9844Z" fill="#F79F08"/>
<path d="M224.842 98.4481C225.776 99.1776 225.349 102.975 225.672 103.92C225.791 104.27 227.122 104.211 227.517 104.28C228.89 104.518 230.204 105.036 231.298 105.719C234.737 107.867 235.963 110.536 235.818 113.927C235.592 119.212 228.683 122.638 222.259 122.638C219.428 122.638 216.907 120.981 215.065 119.542C214.482 119.088 213.404 117.796 213.404 117.167C213.404 116.916 215.142 115.791 215.434 115.223C215.999 114.119 216.356 113.211 216.356 111.911C216.356 110.19 215.218 108.863 213.681 107.663C213.403 107.447 213.032 107.37 212.851 107.087C214.997 105.412 216.714 103.644 218.385 101.688C218.864 101.127 219.508 99.3778 220.23 99.096C221.265 98.692 222.876 98.7417 224.842 98.4481Z" fill="#1E2632"/>
<path d="M191.083 105.432C193.751 105.432 196.311 105.524 198.923 105.863C199.811 105.979 200.636 105.8 201.506 105.935C202.357 106.069 203.232 107.566 203.904 107.303C204.042 107.411 204.042 107.411 204.18 107.519C200.864 110.323 200.202 113.621 203.627 116.591C202.509 117.463 200.608 117.918 199.292 118.534C195.942 120.104 191.047 121.558 186.84 121.558C183.859 121.558 184.188 119.093 183.888 117.455C183.76 116.755 180.627 116.761 182.597 115.223C182.274 114.908 181.779 114.67 181.582 114.287C181.014 113.178 182.486 112.775 182.228 111.767C182.154 111.48 179.69 111.325 179.553 110.471C179.403 109.537 181.19 108.033 181.675 107.087C181.89 106.666 182.728 104.085 182.966 104.064C184.456 103.927 185.438 104.576 186.655 104.712C187.326 104.786 188.11 104.503 188.685 104.784C188.832 104.856 188.882 105.048 189.053 105.072C190.295 105.24 190.758 104.671 191.083 105.432Z" fill="#683234"/>
<path d="M220.046 86.785C219.24 87.4135 218.001 87.0863 217.002 87.4329C215.191 88.0611 213.684 88.1385 211.468 88.2249C210.49 88.263 210.154 88.062 209.9 88.6568C203.385 88.6568 196.973 89.1598 190.53 88.6568C190.266 88.6362 189.918 88.2774 189.7 88.2249C188.61 87.9632 187.05 88.3886 186.195 87.7209C186.814 87.2375 187.256 86.3061 187.855 85.7051C189.698 83.856 191.92 81.7429 194.68 80.6655C203.047 77.4004 211.753 78.559 218.016 84.3372C218.83 85.0881 219.379 86.0041 220.046 86.785Z" fill="#F79F08"/>
<path d="M149.484 182.969C149.392 182.897 149.392 182.897 149.3 182.825C148.632 183.346 143.018 186.46 142.474 184.337C142.323 183.748 143.55 182.975 143.95 182.537C145.509 180.833 146.415 178.705 148.839 177.57C150.495 176.794 154.292 175.217 156.125 175.122C160.071 174.917 163.611 176.379 167.194 177.498C168.179 177.805 170.116 178.184 170.699 178.866C171.365 179.647 171.59 180.786 171.898 181.745C172.152 182.544 173.069 185.388 172.636 186.065C172.597 186.126 172.538 186.207 172.451 186.209C170.822 186.256 169.192 186.188 167.563 186.209C166.45 186.223 165.035 185.565 163.873 185.201C161.914 184.59 159.951 183.905 157.878 183.545C155.98 183.216 154.286 183.284 152.528 183.833C151.231 184.239 149.167 185.297 147.732 185.057C146.014 184.77 149.086 183.176 149.484 182.969Z" fill="#683234"/>
<path d="M222.259 91.1046C222.71 91.4568 223.37 94.1743 222.905 94.4164C222.418 94.6697 221.725 94.3944 221.152 94.4884C220.125 94.6573 218.943 95.3068 217.924 95.3523C216.911 95.3975 215.893 95.3071 214.88 95.3523C214.708 95.3601 214.632 95.6443 214.603 95.7123C211.005 95.7123 207.361 96.4296 203.719 96.6482C197.771 97.0054 191.701 97.1303 185.733 97.0802C184.964 97.0737 184.189 97.0931 183.427 97.0082C182.921 96.9517 183.246 93.6938 183.796 93.2645C184.632 93.9167 185.863 93.7526 187.209 93.7684C190.744 93.8103 194.28 93.8404 197.816 93.8404C204.413 93.8404 211.081 92.8482 217.278 91.9686C218.207 91.8368 221.511 91.689 222.259 91.1046Z" fill="#FC5020"/>
<path d="M219.953 86.785C220.454 87.1761 221.764 88.9416 221.244 89.4488C220.76 89.9211 218.47 90.0506 217.739 90.2407C214.157 91.1729 210.037 91.4458 206.302 91.7526C204.882 91.8692 203.487 91.9637 202.059 92.0406C200.465 92.1264 198.863 92.2437 197.263 92.2566C194.342 92.28 191.421 92.3285 188.5 92.3285C188.186 92.3285 184.223 92.0959 184.165 91.8246C184.096 91.4997 186.025 87.7663 186.287 87.7209C186.528 87.6792 189.688 88.0332 189.884 88.0809C189.968 88.1016 190.339 88.5029 190.529 88.5129C194.763 88.7332 198.929 88.5848 203.074 88.5848C204.492 88.5848 208.963 89.0494 209.346 88.1529C212.577 88.1529 214.405 88.0489 217.002 87.2889C217.962 87.0077 219.011 87.1526 219.953 86.785Z" fill="#2AAFBD"/>
<path d="M203.904 107.447C203.026 107.79 202.522 106.523 201.967 106.151C201.799 106.039 200.848 106.007 200.583 106.007C198.597 106.007 196.68 105.71 194.68 105.647C193.42 105.608 192.149 105.703 190.898 105.576C190.683 105.554 190.649 105.253 190.437 105.216C189.928 105.125 189.383 105.292 188.869 105.216C188.817 105.208 188.511 104.862 188.316 104.856C186.665 104.797 186.207 104.759 184.903 104.352C184.331 104.173 183.658 104.39 183.058 104.28C182.429 104.164 183.012 103.45 182.966 103.2C182.954 103.136 182.371 102.879 182.32 102.84C182.382 102.792 182.418 102.697 182.505 102.696C185.271 102.649 188.039 102.715 190.806 102.696C194.685 102.669 198.641 102.092 202.52 101.688C206.165 101.309 209.81 100.809 213.404 100.248C213.741 100.196 216.082 99.6099 216.172 99.9599C216.23 100.189 215.255 101.12 215.065 101.328C213.826 102.681 212.476 103.945 211.098 105.216C210.803 105.488 210.088 106.376 209.715 106.511C209.69 106.521 207.167 106.485 206.948 106.511C206.216 106.599 204.299 107.756 203.904 107.447Z" fill="#1E2632"/>
<path d="M177.524 155.252C178.134 155.49 177.917 156.27 178.17 156.763C178.722 157.841 179.243 158.64 180.014 159.643C181.152 161.123 182.925 162.288 184.257 163.675C186.046 165.537 187.2 168.504 187.485 170.73C187.622 171.794 188.813 174.662 187.762 175.482C185.757 174.699 185.537 169.566 182.689 170.01C182.266 170.076 182.592 170.734 182.228 171.018C181.33 170.317 181.655 168.493 180.291 168.138C180.291 165.855 176.884 165.79 176.786 164.035C176.758 163.531 176.694 163.027 176.694 162.523C176.694 160.707 176.943 158.798 177.155 156.979C177.211 156.499 177.085 155.594 177.524 155.252Z" fill="#432731"/>
<path d="M221.429 89.2328C222.081 89.0757 222.671 91.1959 221.982 91.4646C221.142 91.7925 219.567 91.6758 218.662 91.8246C216.111 92.2439 213.554 92.6921 210.822 92.9765C202.928 93.7981 195.448 93.9844 187.301 93.9844C186.864 93.9844 183.937 94.0253 183.796 93.6964C183.643 93.3378 183.776 92.9683 183.888 92.6165C184.358 91.1519 186.725 92.0889 188.408 92.1126C191.329 92.1536 194.25 92.1611 197.171 92.1846C201.685 92.2208 206.198 91.5895 210.545 91.1046C214.107 90.7075 217.9 90.0835 221.429 89.2328Z" fill="#1E2632"/>
<path d="M88.9767 97.7281C90.5318 98.9428 90.707 101.234 92.0205 102.552C92.8433 103.379 94.4353 103.429 95.4333 104.208C96.1675 104.781 96.4534 105.653 97.1858 106.223C97.8204 106.719 98.5933 107.086 99.1228 107.663C99.7574 108.357 99.6799 109.252 100.23 109.967C100.766 110.667 101.471 111.349 102.074 112.055C102.294 112.313 102.853 113.359 103.181 113.423C105.03 113.784 106.992 113.41 108.9 113.423C113.349 113.453 117.731 113.495 122.182 113.495C123.202 113.495 125.779 113.049 126.517 113.279C126.84 113.38 126.646 113.668 126.886 113.855C126.364 114.398 125.445 114.647 124.58 114.647C117.386 114.647 110.191 114.671 102.997 114.647C102.25 114.644 99.3552 111.051 98.9383 110.399C98.5657 109.818 98.5933 108.876 98.0159 108.383C97.326 107.796 96.5162 107.357 95.8022 106.799C95.1141 106.262 94.8504 105.409 94.142 104.856C93.6273 104.454 92.6237 104.489 92.0205 104.136C90.8454 103.448 90.0614 102.34 89.7146 101.256C89.3401 100.086 87.2906 98.7802 88.9767 97.7281Z" fill="#FBDBBC"/>
<path d="M189.792 133.509C187.959 135.298 186.522 137.748 185.18 139.845C183.71 142.139 181.588 144.333 180.383 146.684C179.9 147.628 179.199 148.522 178.815 149.42C178.595 149.937 178.709 150.511 178.17 150.932C178.031 150.824 178.031 150.824 177.893 150.716C178.708 149.444 178.578 147.308 178.907 145.892C179.821 141.971 180.517 138.157 184.257 135.237C184.989 134.666 189.078 132.953 189.792 133.509Z" fill="#683234"/>
<path d="M138.047 119.542C139.301 120.196 137.652 121.123 136.663 121.126C123.228 121.174 109.791 121.198 96.3554 121.198C95.612 121.198 95.0254 121.261 94.6029 120.766C93.8835 119.924 96.1396 120.046 97.0933 120.046C99.9527 120.046 102.812 120.046 105.671 120.046C113.696 120.046 121.721 119.974 129.745 119.974C132.02 119.974 134.294 120.046 136.571 120.046C137.176 120.046 137.604 119.312 138.047 119.542Z" fill="#FBDBBC"/>
<path d="M212.943 107.015C215.434 108.96 217.151 110.551 216.448 113.567C216.152 114.839 214.512 116.923 213.128 117.599C209.955 119.146 204.159 118.429 202.336 115.583C202.784 115.233 203.148 114.949 203.535 114.647C205.895 116.489 207.19 116.991 210.729 116.807C210.935 116.796 211.973 116.376 212.205 116.231C214.46 114.823 215.429 112.933 214.419 110.831C214.229 110.435 214.422 110.113 213.866 109.823C213.498 109.632 212.894 111.158 212.574 111.407C212.482 111.371 212.482 111.371 212.39 111.335C212.157 111.517 212.283 111.449 212.021 111.551C211.929 111.479 211.929 111.479 211.836 111.407C210.941 112.106 212.29 113.285 211.467 113.927C210.683 113.314 211.283 112.052 211.283 111.263C211.283 110.439 210.092 110.279 209.899 109.751C209.777 109.417 210.32 109.144 209.899 108.815C210.731 108.167 211.888 107.427 212.943 107.015Z" fill="#F9700F"/>
<path d="M143.12 140.781C143.028 140.889 143.028 140.889 142.935 140.997C142.057 140.655 140.772 140.89 139.799 140.637C137.067 139.926 134.276 138.496 131.775 137.325C130.306 136.638 128.122 136.13 126.978 135.237C127.139 134.987 127.259 134.875 127.624 134.877C131.374 134.901 135.127 134.878 138.877 134.949C138.964 134.951 139.023 135.033 139.061 135.093C139.434 135.675 139.281 136.604 139.615 137.253C140.321 138.633 141.611 139.897 143.12 140.781Z" fill="#EAFEFD"/>
<path d="M213.589 118.894C213.339 119.09 213.505 119.231 213.22 119.398C212.674 119.718 211 119.586 210.453 119.686C210.111 119.749 209.651 120.126 209.346 120.262C208.479 120.649 206.921 119.989 206.025 120.478C203.696 121.751 202.225 124.302 199.661 125.302C198.765 124.602 198.244 121.793 197.54 120.694C198.537 119.916 201.2 120.446 202.613 120.262C203.439 120.155 205.645 118.484 206.487 117.959C206.671 117.843 207.121 118.094 207.317 118.103C208.269 118.146 209.223 118.175 210.176 118.175C210.73 118.175 212.898 117.192 213.22 117.527C213.545 117.865 213.339 118.505 213.589 118.894Z" fill="#432731"/>
<path d="M139.153 97.7281C139.55 98.0377 140.061 97.898 140.076 98.5201C140.137 101.088 140.057 103.656 140.076 106.223C140.089 108.071 140.825 110.014 140.076 111.767C134.804 108.24 135.606 101.881 139.153 97.7281Z" fill="#FC5020"/>
<path d="M140.26 89.0168C139.873 89.3186 139.48 89.0502 139.061 89.3768C139.233 89.6459 139.119 89.4748 139.43 89.8807C139.368 89.9288 139.333 90.0216 139.246 90.0247C137.986 90.0705 136.724 90.0357 135.464 90.0247C133.957 90.0116 132.452 89.9527 130.945 89.9527C123.442 89.9527 115.939 90.001 108.439 90.0247C107.522 90.0276 105.548 89.8758 105.948 88.7288C105.981 88.6306 106.109 88.5584 106.225 88.5129C106.559 88.3827 106.778 88.8001 107.147 88.8008C118.124 88.8247 129.1 88.8013 140.076 88.8728C140.163 88.8734 140.198 88.9689 140.26 89.0168Z" fill="#FCFCFC"/>
<path d="M111.759 92.9765C112.043 92.7539 111.931 92.6062 111.667 92.4005C111.789 92.3046 111.863 92.1189 112.036 92.1126C114.554 92.0211 117.078 92.1271 119.599 92.1126C121.228 92.1032 122.857 92.0406 124.488 92.0406C127.777 92.0406 131.066 92.1126 134.357 92.1126C137.802 92.1126 141.244 92.0406 144.688 92.0406C145.516 92.0406 145.644 93.1186 144.78 93.1205C134.295 93.1444 123.811 93.1463 113.327 93.1925C112.796 93.1948 112.134 93.2695 111.759 92.9765Z" fill="#FCFCFC"/>
<path d="M174.019 178.722C177.562 175.956 179.369 181.668 179.369 183.473C179.369 184.164 178.602 185.529 177.432 185.129C176.319 184.75 176.611 183.327 176.509 182.609C176.265 180.896 175.456 180.152 174.296 178.794C174.203 178.866 174.203 178.866 174.111 178.938C175.309 179.873 175.402 181.291 175.402 182.537C175.402 183.057 173.861 184.08 173.189 183.905C172.656 183.766 172.757 182.055 172.728 181.457C172.68 180.491 171.378 179.291 170.422 178.794C170.972 177.077 172.946 177.989 174.019 178.722Z" fill="#FCFCFC"/>
<path d="M141.736 97.5841C142.581 98.2446 142.961 99.255 143.397 100.104C145.514 104.238 144.983 107.931 141.644 111.407C140.945 110.862 141.46 110.133 141.46 109.463C141.46 108.503 141.367 107.544 141.367 106.583C141.367 104.198 141.46 101.803 141.46 99.384C141.46 98.7585 141.1 98.081 141.736 97.5841Z" fill="#34A853"/>
<path d="M133.896 123.214C134.632 123.221 135.292 124.292 134.265 124.294C124.549 124.318 114.832 124.318 105.118 124.294C104.301 124.292 104.205 123.216 105.026 123.214C114.648 123.19 124.272 123.126 133.896 123.214Z" fill="#FCFCFC"/>
<path d="M141.552 111.335C142.028 110.963 142.379 110.475 142.751 110.039C143.432 110.57 143.932 110.794 143.212 111.407C142.639 111.895 142.013 112.346 141.46 112.847C140.796 113.447 141.486 114.436 141.368 115.223C141.309 115.607 140.552 115.397 140.261 115.511C139.028 114.549 140.799 113.557 139.154 112.487C139.48 112.232 139.943 111.982 139.984 111.623C140.18 109.854 139.997 108.071 139.984 106.295C139.966 103.704 139.892 101.112 139.892 98.5201C139.892 97.9031 141.238 97.7299 141.275 98.2321C141.368 99.5263 141.368 100.824 141.368 102.12C141.368 103.8 141.275 105.479 141.275 107.159C141.275 108.504 141.279 109.849 141.368 111.191C141.371 111.259 141.489 111.287 141.552 111.335Z" fill="#FCEDDD"/>
<path d="M126.886 97.0082C126.069 97.6453 126.438 97.4335 125.872 97.7281C125.635 97.5745 125.44 97.2962 125.134 97.2962C115.971 97.2962 106.808 97.4858 97.647 97.3682C97.385 97.3649 97.278 97.0802 97.0936 96.9362C97.2467 96.7922 97.3149 96.508 97.5547 96.5042C106.714 96.3627 115.879 96.5042 125.041 96.5042C125.831 96.5042 126.325 96.5713 126.886 97.0082Z" fill="#FCFCFC"/>
<path d="M97.5547 96.6482C97.4164 96.7562 97.4164 96.7562 97.278 96.8642C97.3998 96.9843 97.4496 97.2217 97.647 97.2242C106.777 97.3425 115.91 97.2242 125.041 97.2242C125.396 97.2242 125.608 97.1631 125.872 97.3682C125.687 97.5121 125.687 97.5121 125.503 97.6561C125.44 97.6322 125.386 97.5843 125.318 97.5841C113.327 97.5602 101.336 97.5602 89.3456 97.5841C88.3771 97.5862 88.866 98.6779 88.4232 99.024C87.9454 98.6521 86.6762 96.5147 88.0543 96.5042C91.159 96.4808 94.2655 96.4571 97.3702 96.5042C97.4569 96.5055 97.492 96.6003 97.5547 96.6482Z" fill="#F5B296"/>
<path d="M203.535 116.591C204.439 117.297 205.666 117.462 206.486 118.102C205.952 118.936 204.173 119.583 203.258 120.118C203.304 120.19 203.304 120.19 203.35 120.262C202.681 120.785 201.255 120.516 200.583 120.55C199.693 120.595 198.798 120.505 197.908 120.55C197.821 120.555 197.785 120.646 197.724 120.694C197.194 120.419 197.351 119.899 196.894 119.542C197.827 118.814 199.102 118.609 200.214 118.174C201.395 117.714 202.373 117.044 203.535 116.591Z" fill="#1E2632"/>
<path d="M127.808 97.8001C127.937 97.901 128.083 98.0796 128.085 98.2321C128.146 102.936 128.177 107.639 128.177 112.343C128.177 112.874 127.249 113.571 126.886 113.927C126.473 113.686 126.41 113.469 125.964 113.207C126.384 112.769 126.784 112.275 126.794 111.695C126.853 107.424 126.886 103.152 126.886 98.88C126.886 98.3661 127.176 98.0466 127.808 97.8001Z" fill="#FCFCFC"/>
<path d="M138.877 96.2162C139.203 96.4718 139.286 96.3928 139.615 96.6482C139.475 96.8671 139.587 96.915 139.799 97.0802C138.541 99.0439 136.479 101.221 136.479 103.56C136.479 104.544 136.516 105.528 136.571 106.511C136.588 106.811 136.94 107.304 136.848 107.591C136.787 107.783 136.08 108.304 135.925 108.455C134.791 107.57 135.003 104.779 135.003 103.848C135.003 101.125 137.034 98.3732 138.877 96.2162Z" fill="#FCEDDD"/>
<path d="M141.183 115.223C141.493 115.466 141.452 115.439 141.828 115.439C143.642 115.439 145.457 115.419 147.27 115.439C147.733 115.444 148.717 115.376 148.838 115.943C148.894 116.203 148.682 116.586 148.285 116.591C146.132 116.614 143.979 116.591 141.828 116.591C139.368 116.591 136.909 116.591 134.449 116.591C134.082 116.591 133.413 116.54 133.343 116.159C133.047 114.547 139.069 116.152 140.168 115.295C140.26 115.331 140.26 115.331 141.183 115.223Z" fill="#FBDBBC"/>
<path d="M177.524 164.755C178.944 165.863 180.299 167.242 180.937 168.57C181.03 168.764 181.464 168.746 181.583 168.93C181.855 169.355 181.739 170.145 181.951 170.586C182.042 170.775 182.344 170.821 182.505 170.946C182.688 171.089 183.298 172.862 183.335 173.178C183.42 173.904 184.708 175.918 183.612 176.346C183.177 176.006 182.511 173.913 182.228 173.25C181.983 172.676 181.4 172.211 181.121 171.666C180.766 170.973 180.511 169.811 179.83 169.146C179.269 168.599 178.712 167.879 178.539 167.203C178.397 166.651 176.471 165.289 177.524 164.755Z" fill="#1E2632"/>
<path d="M205.103 113.711C205.241 113.567 205.241 113.567 205.38 113.423C206.37 113.68 208.313 113.629 208.792 112.631C208.922 112.36 208.719 112.025 208.885 111.767C209.001 111.585 209.329 111.52 209.438 111.335C209.585 111.087 209.474 109.846 210.084 109.751C211.685 109.501 211.562 113.485 211.467 113.855C211.323 114.419 210.711 113.98 210.36 114.215C209.07 115.078 207.652 114.973 206.025 114.719C205.485 114.635 205.42 113.958 205.103 113.711Z" fill="#FC5020"/>
<path d="M170.699 178.794C171.772 179.213 172.734 180.485 172.82 181.385C172.896 182.188 172.451 183.401 173.374 183.761C173.689 183.884 174.805 183.061 174.941 182.969C175.752 183.444 175.605 186.049 174.572 186.208C173.94 186.308 173.276 186.272 172.636 186.208C172.313 186.178 172.357 183.864 172.267 183.329C172.014 181.85 171.306 180.173 170.514 178.938C170.607 178.866 170.607 178.866 170.699 178.794Z" fill="#C44736"/>
<path d="M140.537 96.3602C140.126 96.6008 139.982 96.8305 139.707 97.1522C139.305 96.8393 139.25 96.5787 138.785 96.2882C139.46 95.7604 139.696 94.9923 140.814 94.9923C141.412 94.9923 142.087 96.0478 142.382 96.4322C143.557 97.9624 144.614 99.4737 145.241 101.184C145.326 101.416 144.811 102.557 144.319 102.48C144.083 102.443 143.694 100.943 143.581 100.68C142.933 99.1644 141.76 97.6335 140.537 96.3602Z" fill="#FBDBBC"/>
<path d="M209.992 108.743C210.913 109.463 209.376 111.272 209.069 111.911C208.886 112.292 209.317 112.305 208.977 112.703C208.21 113.601 207.836 113.161 207.132 113.711C206.814 113.463 206.096 113.014 206.025 112.631C205.859 111.723 209.384 109.059 209.992 108.743Z" fill="#F36549"/>
<path d="M141.829 97.6561C141.421 97.9733 141.644 98.477 141.644 98.88C141.644 99.744 141.644 100.608 141.644 101.472C141.644 104.091 141.473 106.733 141.552 109.391C141.57 110.02 141.142 110.871 141.736 111.335C141.598 111.443 141.598 111.443 141.46 111.551C141.367 111.503 141.188 111.493 141.183 111.407C141.094 110.017 141.196 108.623 141.183 107.231C141.166 105.551 141.091 103.872 141.091 102.192C141.091 100.896 141.211 99.5967 141.091 98.3041C141.024 97.5945 140.017 98.3887 139.892 98.5201C139.526 98.2358 139.639 98.0259 139.061 97.8001C140.178 96.058 140.65 95.8158 141.829 97.6561Z" fill="#DD9272"/>
<path d="M214.603 112.991C215.909 114.01 212.039 116.476 211.191 116.807C210.19 117.197 207.888 116.424 209.53 115.655C210.326 115.282 210.978 115.334 211.744 114.791C212.197 114.469 212.47 114.08 212.851 113.783C212.943 113.819 212.943 113.819 213.035 113.855C213.291 113.656 213.038 113.183 213.404 113.135C213.803 113.083 214.267 113.166 214.603 112.991Z" fill="#FBDBBC"/>
<path d="M145.241 101.472C146.25 102.26 146.35 107.157 145.333 107.951C144.503 107.303 145.038 106.353 144.503 105.935C145.638 104.164 143.225 103.045 145.241 101.472Z" fill="#FCEDDD"/>
<path d="M136.755 107.519C137.231 107.892 137.277 108.623 137.586 109.103C138.187 110.044 139.22 110.894 140.076 111.695C139.521 112.129 139.69 112.212 139.246 112.559C138.609 112.062 135.534 109.316 135.833 108.383C135.894 108.192 136.6 107.671 136.755 107.519Z" fill="#FBDBBC"/>
<path d="M126.886 96.9362C127.078 97.0868 128.056 97.5815 127.808 97.8721C127.711 97.9851 127.443 98.0245 127.439 98.1601C127.319 102.071 127.5 105.984 127.439 109.895C127.438 109.963 127.316 109.991 127.255 110.039C127.192 109.991 127.07 109.963 127.07 109.895C127.01 106.176 127.218 102.454 127.07 98.736C127.056 98.3913 126.155 97.8522 125.779 97.6561C126.303 97.2468 125.953 97.5026 126.886 96.9362Z" fill="#FBDBBC"/>
<path d="M144.688 105.935C145.103 106.26 144.741 106.856 144.872 107.303C144.913 107.444 145.466 107.752 145.518 107.951C145.66 108.504 144.033 110.504 143.581 110.975C143.327 110.776 142.79 110.296 142.659 110.111C142.605 110.038 143.577 108.785 143.673 108.599C144.033 107.895 144.077 106.412 144.688 105.935Z" fill="#FBDBBC"/>
<path d="M112.036 92.2566C111.944 92.3285 111.944 92.3285 111.851 92.4005C112.213 92.6826 111.8 92.8645 112.128 93.1205C111.733 93.4279 111.023 93.28 110.468 93.2645C110.003 93.2515 109.472 93.3219 109.084 93.1205C108.697 92.9193 108.468 92.1304 109.177 92.1126C110.068 92.0901 110.96 92.0678 111.851 92.1126C111.938 92.117 111.973 92.2086 112.036 92.2566Z" fill="#FBDBBC"/>
<path d="M202.705 108.743C203.089 109.043 203.315 108.943 203.627 109.247C203.998 109.608 203.244 110.986 202.889 111.263C202.385 110.869 202.113 111.352 201.69 110.759C201.294 110.203 202.252 109.096 202.705 108.743Z" fill="#F9700F"/>
<path d="M138.969 89.3048C138.877 89.2328 138.877 89.2328 138.785 89.1608C139.34 88.7264 142.493 88.7134 141.091 89.8088C140.635 90.1643 138.433 90.1409 138.969 89.3048Z" fill="#FCEDDD"/>
<path d="M256.387 110.039C256.433 110.903 256.433 110.903 256.479 111.767C255.26 112.084 255.477 110.394 256.387 110.039Z" fill="#E25032"/>
</g>
<defs>
<linearGradient id="paint0_linear_239_107" x1="24.1143" y1="261.29" x2="284.654" y2="-19.7862" gradientUnits="userSpaceOnUse">
<stop stop-color="#FDCA88"/>
<stop offset="1" stop-color="white"/>
</linearGradient>
</defs>
</svg>
