<svg width="40" height="40" viewBox="0 0 40 40" fill="none" xmlns="http://www.w3.org/2000/svg">
<path d="M0 0H9.71616V39.3703H0V0Z" fill="#FCA739"/>
<path d="M25.9098 0L37.7436 0.483071L20.0552 18.8398L19.895 18.9816L40 39.0372L26.0976 40L12.3207 25.6929L12.3037 25.708L12.3033 25.6748L12.2444 25.6136L12.3021 25.5628L12.1819 14.0446L12.25 14.086L25.9098 0Z" fill="#FCA739"/>
<path d="M31.3907 21.9797C33.0418 21.9797 34.3803 20.682 34.3803 19.0813C34.3803 17.4805 33.0418 16.1829 31.3907 16.1829C29.7396 16.1829 28.4011 17.4805 28.4011 19.0813C28.4011 20.682 29.7396 21.9797 31.3907 21.9797Z" fill="#FCA739"/>
</svg>
